<?xml version="1.0" encoding="utf-8"?>
<!-- Generator: Adobe Illustrator 24.1.2, SVG Export Plug-In . SVG Version: 6.00 Build 0)  -->
<svg version="1.1" id="Слой_1" xmlns="http://www.w3.org/2000/svg" xmlns:xlink="http://www.w3.org/1999/xlink" x="0px" y="0px"
	 viewBox="0 0 88.42 130.21" style="enable-background:new 0 0 88.42 130.21;" xml:space="preserve">
<style type="text/css">
	.st0{fill:#F0C30F;}
	.st1{fill:#F29B12;}
	.st2{fill:#FEEBB9;}
	.st3{fill:#D9E9F1;}
	.st4{fill:#BDD9E7;}
	.st5{fill:#E78F8D;}
	.st6{fill:#D87475;}
	.st7{fill:#3A3A3A;}
</style>
<g>
	<path class="st0" d="M0.01,90.11c0.61-1.09,1.2-2.18,1.82-3.26c7.19-12.72,14.38-25.43,21.58-38.14
		c3.47-6.13,6.93-12.26,10.41-18.38c0.06-0.11,0.07-0.3,0.28-0.26c0.1,0.04,0.19,0.09,0.29,0.13c6,2.34,11.86,4.97,17.54,7.99
		c1.31,0.7,2.6,1.43,3.9,2.15c0.12,0.09,0.25,0.18,0.37,0.27c-0.79,1.38-1.58,2.76-2.37,4.14c-0.93,1.62-1.87,3.23-2.8,4.84
		c-0.94,1.63-1.88,3.25-2.81,4.88c-0.86,1.49-1.72,2.98-2.58,4.47c-0.94,1.63-1.87,3.25-2.81,4.88c-0.86,1.49-1.72,2.98-2.58,4.47
		c-0.94,1.63-1.87,3.25-2.81,4.88c-0.93,1.6-1.86,3.21-2.78,4.81c-0.96,1.67-1.91,3.34-2.87,5.01c-1.03,1.78-2.06,3.56-3.09,5.34
		c-1.13,1.96-2.25,3.92-3.38,5.88c-1.03,1.78-2.06,3.56-3.09,5.34c-1.13,1.95-2.27,3.91-3.39,5.87c-0.24,0.42-0.56,0.8-0.67,1.29
		l-0.01-0.02c-0.03,0.02-0.05,0.05-0.08,0.07c-0.18,0.13-0.38,0.23-0.62,0.29c-0.01-0.08-0.02-0.14-0.03-0.19
		c-0.09-2.05-0.49-4.03-1.22-5.95c-1.01-2.65-2.56-4.89-4.92-6.52c-1.43-0.99-3-1.73-4.61-2.4C4.51,91.1,2.3,90.44,0.01,90.11z"/>
	<path class="st1" d="M18.15,106.7c0.11-0.49,0.43-0.87,0.67-1.29c1.12-1.96,2.26-3.91,3.39-5.87c1.03-1.78,2.07-3.56,3.09-5.34
		c1.13-1.96,2.25-3.92,3.38-5.88c1.03-1.78,2.06-3.56,3.09-5.34c0.96-1.67,1.91-3.34,2.87-5.01c0.92-1.61,1.86-3.21,2.78-4.81
		c0.94-1.63,1.87-3.25,2.81-4.88c0.86-1.49,1.72-2.98,2.58-4.47c0.94-1.63,1.87-3.25,2.81-4.88c0.86-1.49,1.72-2.98,2.58-4.47
		c0.94-1.63,1.87-3.25,2.81-4.88c0.93-1.61,1.87-3.23,2.8-4.84c0.79-1.38,1.58-2.76,2.37-4.14c0.07,0.04,0.15,0.07,0.22,0.11
		c3.37,2.01,6.63,4.17,9.82,6.45c2.75,1.96,5.45,3.99,8.08,6.12c0.14,0.11,0.3,0.21,0.22,0.43l0,0c-0.14,0.1-0.2,0.25-0.24,0.42
		h0.01c-0.05,0.01-0.06,0.04-0.06,0.09l0,0c-0.15,0.12-0.21,0.28-0.27,0.45c-10.71,18.92-21.42,37.84-32.13,56.76
		c-0.35,0.63-0.7,1.25-1.06,1.87c-0.05,0.09-0.06,0.29-0.26,0.21c-0.11-0.26-0.31-0.45-0.49-0.65c-2.11-2.42-4.56-4.43-7.28-6.13
		c-1.7-1.06-3.53-1.7-5.53-1.83c-2.1-0.14-4.15,0.15-6.16,0.75C20.05,105.93,19.11,106.34,18.15,106.7z"/>
	<path class="st2" d="M18.15,106.7c0.96-0.36,1.91-0.76,2.89-1.06c2.01-0.6,4.06-0.89,6.16-0.75c2,0.13,3.83,0.78,5.53,1.83
		c2.72,1.7,5.17,3.71,7.28,6.13c0.18,0.2,0.39,0.39,0.49,0.65c0,0.18-0.16,0.2-0.27,0.25c-1.92,0.87-3.84,1.73-5.75,2.6
		c-1.43,0.65-2.85,1.3-4.28,1.95c-2.22,1.01-4.44,2.01-6.67,3.02c-1.64,0.75-3.28,1.5-4.93,2.24c-1.52,0.69-3.05,1.37-4.58,2.05
		c-2.11-1.89-4.39-3.55-6.92-4.85c-1.37-0.71-2.78-1.32-4.29-1.68c-0.13-1.39-0.25-2.78-0.39-4.17c-0.16-1.58-0.34-3.15-0.49-4.73
		c-0.13-1.33-0.24-2.66-0.37-3.99c-0.14-1.48-0.28-2.97-0.43-4.45c-0.16-1.58-0.34-3.15-0.49-4.73c-0.13-1.35-0.24-2.71-0.37-4.06
		C0.17,92,0.04,91.06,0,90.1c2.3,0.33,4.5,0.99,6.65,1.87c1.61,0.66,3.18,1.4,4.61,2.4c2.36,1.63,3.91,3.88,4.92,6.52
		c0.73,1.91,1.14,3.9,1.22,5.95c0,0.06,0.01,0.11,0.03,0.19c0.24-0.05,0.44-0.16,0.62-0.29c0.04-0.01,0.08-0.02,0.08-0.07
		L18.15,106.7z"/>
	<path class="st3" d="M55.82,40.34c-1.3-0.72-2.59-1.45-3.9-2.15c-5.68-3.03-11.54-5.66-17.54-7.99c-0.1-0.04-0.2-0.09-0.29-0.13
		c0.83-1.44,1.66-2.88,2.48-4.32c0.82-1.42,1.63-2.84,2.45-4.26c0.86-1.5,1.72-3.01,2.58-4.51s1.74-3,2.6-4.5
		c0.07-0.12,0.15-0.24,0.23-0.36c0.07,0.13,0.2,0.16,0.33,0.21c3.87,1.48,7.67,3.13,11.42,4.9c2.59,1.22,5.14,2.52,7.65,3.9
		c0.77,0.43,1.57,0.83,2.29,1.33c-0.8,1.39-1.59,2.78-2.39,4.16c-0.93,1.62-1.87,3.25-2.81,4.87c-0.87,1.5-1.73,3-2.6,4.5
		C57.5,37.44,56.66,38.89,55.82,40.34z"/>
	<path class="st4" d="M55.82,40.34c0.84-1.45,1.67-2.9,2.51-4.34c0.87-1.5,1.73-3,2.6-4.5c0.94-1.62,1.87-3.25,2.81-4.87
		c0.8-1.39,1.59-2.78,2.39-4.16h0.03h0.03c0.13,0.08,0.27,0.16,0.4,0.24c4.08,2.42,8.01,5.07,11.84,7.87
		c2.22,1.63,4.42,3.29,6.54,5.04c0.02,0.34-0.23,0.57-0.38,0.83c-1.69,2.94-3.39,5.88-5.09,8.82c-1.58,2.74-3.17,5.48-4.76,8.22
		c-0.05,0.09-0.11,0.19-0.22,0.22c0.08-0.22-0.07-0.32-0.22-0.43c-2.63-2.12-5.33-4.16-8.08-6.12c-3.19-2.28-6.45-4.44-9.82-6.45
		c-0.07-0.04-0.15-0.07-0.22-0.11C56.07,40.51,55.95,40.42,55.82,40.34z"/>
	<path class="st5" d="M66.19,22.46h-0.03h-0.03c-0.73-0.51-1.52-0.91-2.29-1.33c-2.51-1.38-5.06-2.68-7.65-3.9
		c-3.75-1.77-7.55-3.42-11.42-4.9c-0.12-0.05-0.26-0.07-0.33-0.21c1.13-2.02,2.51-3.85,4.17-5.46c3.24-3.13,7.07-5.17,11.47-6.13
		c2.06-0.45,4.14-0.61,6.24-0.49c3.77,0.22,7.28,1.3,10.54,3.21c0.07,0.04,0.13,0.1,0.2,0.15c0.01,0.11-0.04,0.2-0.1,0.3
		c-0.67,1.16-1.33,2.32-2,3.48c-0.86,1.49-1.72,2.98-2.58,4.47c-0.84,1.46-1.69,2.91-2.53,4.37c-0.87,1.5-1.74,2.99-2.59,4.5
		C66.9,21.16,66.46,21.76,66.19,22.46z"/>
	<path class="st6" d="M66.19,22.46c0.26-0.7,0.7-1.3,1.07-1.94c0.85-1.51,1.73-3,2.59-4.5c0.84-1.46,1.69-2.91,2.53-4.37
		c0.86-1.49,1.72-2.98,2.58-4.47c0.67-1.16,1.33-2.32,2-3.48c0.06-0.1,0.11-0.18,0.1-0.3c1.05,0.56,2,1.27,2.91,2.03
		c3.39,2.82,5.78,6.33,7.21,10.5c0.65,1.9,1.04,3.85,1.18,5.86c0.34,4.8-0.71,9.27-3.09,13.45c-0.08,0.14-0.11,0.32-0.3,0.38
		c-2.13-1.75-4.32-3.41-6.54-5.04c-3.83-2.8-7.75-5.46-11.84-7.87C66.46,22.62,66.33,22.54,66.19,22.46z"/>
	<path class="st7" d="M2.82,119.08c1.51,0.35,2.92,0.97,4.29,1.68c2.53,1.3,4.8,2.96,6.92,4.85c-1.08,0.56-2.21,1.02-3.31,1.53
		c-2.15,0.98-4.31,1.96-6.46,2.93c-0.1,0.04-0.19,0.08-0.33,0.14C3.56,126.48,3.19,122.78,2.82,119.08z"/>
	<path class="st4" d="M73.97,54.66c0.07-0.16,0.13-0.33,0.27-0.45C74.24,54.41,74.2,54.59,73.97,54.66z"/>
	<path class="st4" d="M74.29,54.12c0.03-0.17,0.1-0.31,0.24-0.42C74.53,53.89,74.5,54.06,74.29,54.12z"/>
	<path class="st4" d="M74.24,54.21c0-0.05,0.01-0.08,0.06-0.09C74.31,54.17,74.29,54.2,74.24,54.21z"/>
	<path class="st1" d="M18.13,106.68c0,0.05-0.04,0.06-0.08,0.07C18.08,106.73,18.11,106.7,18.13,106.68z"/>
</g>
</svg>
