<?xml version="1.0" encoding="utf-8"?>
<!-- Generator: Adobe Illustrator 24.1.2, SVG Export Plug-In . SVG Version: 6.00 Build 0)  -->
<svg version="1.1" id="Слой_1" xmlns="http://www.w3.org/2000/svg" xmlns:xlink="http://www.w3.org/1999/xlink" x="0px" y="0px"
	 viewBox="0 0 94.3 132.7" style="enable-background:new 0 0 94.3 132.7;" xml:space="preserve">
<style type="text/css">
	.st0{fill:#D9E9F1;}
	.st1{fill:#BDD9E7;}
	.st2{fill:#3A6DA5;}
	.st3{fill:#487FBB;}
	.st4{fill:#F0C30F;}
	.st5{fill:#F47B71;}
	.st6{fill:#D74848;}
	.st7{fill:#D87475;}
	.st8{fill:#5AD1EA;}
</style>
<g>
	<path class="st0" d="M21.5,96.6c-0.3-0.4-0.7-0.7-1-1.1c-0.9-1.2-1.4-2.6-1.4-4.1c0-0.3,0.1-0.6-0.1-0.9c0.1-0.1,0.1-0.3,0.1-0.4
		c0-0.9,0.1-1.8,0.1-2.8c0.2-2.8,0.5-5.5,1-8.3c0.8-4.6,1.9-9.2,3.3-13.6c0.8-2.5,1.6-5,2.5-7.5c0.8-2.2,1.7-4.3,2.6-6.5
		c0.6-1.5,1.3-2.9,2-4.4c0.6-1.2,1.1-2.5,1.8-3.7c1.7-3.2,3.3-6.5,5.3-9.5c1.2-1.8,2.5-3.5,3.8-5.2c0.8-1,1.7-2,2.6-3
		c0.8-0.8,1.5-1.7,2.4-2.5c1.5-1.5,3.1-2.9,4.7-4.2c2.2-1.8,4.5-3.5,6.9-5.1c1.8-1.2,3.7-2.4,5.6-3.4c0.1-0.1,0.2-0.1,0.4-0.1
		c0,0,0.1,0,0.1,0c4.5,1.6,8.9,3.4,13.2,5.6c1.1,0.6,2.3,1.2,3.3,1.9c-0.2,0.6-0.6,1-0.9,1.6c-0.8,1.5-1.7,2.9-2.5,4.4
		c-0.8,1.4-1.7,2.9-2.5,4.3c-0.9,1.5-1.8,3-2.6,4.6c-0.3,0.5-0.7,1.1-0.9,1.7c-0.7-0.4-1.5-0.8-2.3-1.2c-1.6-0.7-3.3-1.1-5.1-1.3
		c-1.2-0.1-2.4-0.1-3.6,0.1c-1.7,0.3-3.3,0.7-4.8,1.4c-1.9,0.9-3.6,2.2-5.1,3.8c-0.9,1-1.7,2.1-2.3,3.3c-1.2,2.3-1.9,4.7-2,7.3
		c0,1.1,0,2.1,0.2,3.2c0.4,2.5,1.4,4.9,2.9,7c0.9,1.2,1.9,2.3,3.1,3.2c0.8,0.6,1.6,1.1,2.4,1.6c-0.2,0.5-0.5,1-0.8,1.5
		c-0.9,1.6-1.9,3.3-2.8,4.9c-0.9,1.5-1.7,3-2.6,4.5c-0.8,1.4-1.6,2.9-2.5,4.3c-1,1.6-1.9,3.3-2.9,4.9c-0.9,1.5-1.7,3-2.6,4.4
		c-0.8,1.5-1.7,2.9-2.5,4.4c-0.8,1.5-1.7,2.9-2.5,4.3c-0.9,1.5-1.8,3-2.6,4.5c-0.4,0.7-0.8,1.3-1.1,2.1c-0.1,0-0.2-0.1-0.3-0.1
		c-2.9-1.6-5.7-3.3-8.5-4.9C22.6,97.2,22,96.9,21.5,96.6z"/>
	<path class="st1" d="M71.4,34.2c0.2-0.6,0.6-1.1,0.9-1.7c0.9-1.5,1.8-3,2.6-4.6c0.8-1.4,1.7-2.9,2.5-4.3c0.9-1.5,1.7-2.9,2.5-4.4
		c0.3-0.5,0.6-1,0.9-1.6c0,0,0,0,0.1,0c0,0,0.1,0.1,0.1,0.1c3.4,2,6.6,4.3,9.8,6.8c1.2,0.9,2.4,1.9,3.6,2.9c0,1.1,0,2.1,0,3.2
		c-0.1,1.5-0.1,2.9-0.3,4.4c-0.1,1.1-0.2,2.2-0.3,3.2c-0.2,1.4-0.4,2.7-0.6,4.1c-0.3,1.8-0.7,3.6-1.1,5.4c-0.3,1.3-0.7,2.6-1.1,3.8
		c-1.2,3.8-2.7,7.5-4.5,11.1c-1,1.9-2.1,3.7-3.2,5.5c-1,1.6-2.1,3.3-3.2,4.9c-1.7,2.6-3.5,5.1-5.4,7.6c-1.5,2-3.1,4-4.7,6
		c-0.9,1.1-1.8,2.1-2.7,3.1C67.1,89.8,67,89.9,67,90c-0.1,0-0.2,0.1-0.3,0.2c-0.9,1-1.8,2-2.8,3c-2,2.1-4,4.1-6.1,6
		c-2.7,2.5-5.5,4.8-8.5,6.9c-0.4,0.3-0.8,0.4-1,0.8c-0.5,0.2-0.9,0.5-1.4,0.8c-1.3,0.7-2.6,0.9-4.1,0.8c-0.5-0.1-1.1-0.2-1.6-0.4
		c-0.2-0.1-0.4-0.2-0.6-0.3c-1.8-1-3.6-2.1-5.4-3.1c-1.1-0.7-2.3-1.3-3.4-2c0.3-0.7,0.8-1.4,1.1-2.1c0.9-1.5,1.7-3,2.6-4.5
		c0.8-1.5,1.7-2.9,2.5-4.3c0.8-1.5,1.7-2.9,2.5-4.4c0.9-1.5,1.7-3,2.6-4.4c1-1.6,1.9-3.3,2.9-4.9c0.8-1.4,1.6-2.9,2.5-4.3
		c0.9-1.5,1.7-3,2.6-4.5c0.9-1.6,1.9-3.3,2.8-4.9c0.3-0.5,0.6-0.9,0.8-1.5c0.4,0.1,0.7,0.3,1,0.5c1.8,0.8,3.7,1.3,5.7,1.5
		c2.3,0.1,4.6-0.2,6.8-1c2.2-0.8,4.1-2,5.8-3.6c1.6-1.5,2.8-3.3,3.7-5.3c0.9-2,1.3-4.1,1.4-6.3c0-1.6-0.2-3.3-0.6-4.8
		c-0.7-2.5-2-4.7-3.8-6.6C73.7,35.9,72.6,35,71.4,34.2z"/>
	<path class="st2" d="M48.4,106.9c0.3-0.3,0.7-0.5,1-0.8c3-2.1,5.8-4.4,8.5-6.9c2.1-1.9,4.1-3.9,6.1-6c0.9-1,1.8-2,2.8-3
		c0.1-0.1,0.1-0.2,0.3-0.2c1.5,1.8,2.6,3.8,3,6.1c0.7,4.1-0.2,7.7-2.8,10.9c-5.1,6.3-10.4,12.5-15.6,18.7c-0.7,0.9-1.5,1.8-2.2,2.6
		c-0.1,0.1-0.2,0.2-0.2,0.2c0-0.7,0-1.3,0-2c0.1-2.1,0.2-4.3,0.3-6.4c0.1-2.9,0.2-5.8,0.2-8.7c0-1.5-0.5-2.8-1.6-3.8
		c0,0,0-0.1-0.1-0.1C48.2,107.4,48.3,107.1,48.4,106.9z"/>
	<path class="st3" d="M23.7,65.4c-1.4,4.5-2.5,9-3.3,13.6c-0.5,2.8-0.8,5.5-1,8.3c-0.1,0.9-0.1,1.8-0.1,2.8c0,0.1,0,0.3-0.1,0.4
		c-0.1,0.3-0.3,0.3-0.6,0.2c-1.3-0.3-2.5-0.2-3.6,0.5c-3.4,2-6.8,4.1-10.1,6.2c-1.5,0.9-2.9,1.8-4.4,2.8c-0.1,0.1-0.2,0.1-0.4,0.2
		c0.2-0.6,0.4-1,0.5-1.5c2.9-8.1,5.8-16.2,8.9-24.3c0.6-1.7,1.3-3.3,2.5-4.6c2.3-2.6,5.2-4.2,8.7-4.6C21.7,65.2,22.7,65.2,23.7,65.4
		z"/>
	<path class="st4" d="M15.6,132.7c0-0.6,0-1.3,0.1-1.9c0.1-1.9,0.3-3.8,0.5-5.6c0.4-3.9,0.8-7.9,1.8-11.7c0.8-3.1,2.7-5.1,5.9-6
		c4.7-1.2,9.4,2.1,9.8,6.9c0.2,2.4-0.5,4.5-2.1,6.3c-1.6,1.7-3.5,3.1-5.3,4.6c-3.3,2.6-6.8,5-10.3,7.3
		C15.8,132.6,15.8,132.7,15.6,132.7z"/>
	<path class="st5" d="M80.9,17.7C80.9,17.7,80.8,17.7,80.9,17.7c-1.1-0.7-2.3-1.3-3.4-1.9c-4.3-2.2-8.6-4.1-13.2-5.6
		c0,0-0.1,0-0.1,0c0.5-0.4,1-0.6,1.5-0.9c6-3.2,12.3-5.8,18.8-7.7c1.4-0.4,2.8-0.7,4.2-1.1c0.4-0.1,0.8-0.2,1.2-0.6
		c0.2,0.2,0.4,0.3,0.7,0.3c-0.1,0.3-0.1,0.5-0.1,0.8c-0.4,0.5-0.7,1-1,1.6c-1.4,2.4-2.8,4.8-4.2,7.3C83.9,12.6,82.4,15.1,80.9,17.7z
		"/>
	<path class="st6" d="M80.9,17.7c1.5-2.6,3-5.2,4.5-7.8c1.4-2.4,2.8-4.9,4.2-7.3c0.3-0.5,0.6-1.1,1-1.6c1.1,3.6,2,7.2,2.5,10.9
		c0.4,2.7,0.8,5.4,1,8.1c0.2,2.3,0.3,4.7,0.3,7c0,0.1,0,0.2,0,0.3c-1.2-1-2.4-1.9-3.6-2.9c-3.1-2.4-6.4-4.7-9.8-6.8
		C80.9,17.8,80.9,17.8,80.9,17.7z"/>
	<path class="st7" d="M31.9,102.6c1.1,0.7,2.3,1.3,3.4,2c1.8,1,3.6,2.1,5.4,3.1c0.2,0.1,0.4,0.2,0.6,0.3c-0.7,2-3.1,2.9-5,1.8
		c-4.4-2.5-8.7-5-13-7.5c-0.3-0.2-0.6-0.3-0.9-0.5c-1.8-1.1-2.3-3.3-1.1-5c0-0.1,0.1-0.1,0.1-0.2c0.5,0.3,1,0.6,1.6,0.9
		c2.9,1.6,5.7,3.3,8.5,4.9C31.7,102.5,31.8,102.5,31.9,102.6z"/>
	<path class="st8" d="M62.6,60.7c-6.7,0-12.5-5.3-12.5-12.5c0-7.1,5.8-12.5,12.5-12.5c6.9,0,12.5,5.6,12.5,12.5
		C75.2,55.2,69.6,60.7,62.6,60.7z"/>
</g>
</svg>
