<?xml version="1.0" encoding="utf-8"?>
<!-- Generator: Adobe Illustrator 24.1.2, SVG Export Plug-In . SVG Version: 6.00 Build 0)  -->
<svg version="1.1" id="Слой_1" xmlns="http://www.w3.org/2000/svg" xmlns:xlink="http://www.w3.org/1999/xlink" x="0px" y="0px"
	 viewBox="0 0 15.6 13.1" style="enable-background:new 0 0 15.6 13.1;" xml:space="preserve">
<style type="text/css">
	.st0{fill:#FFFFFF;stroke:#FFFFFF;stroke-miterlimit:10;}
</style>
<path class="st0" d="M14.1,2.4H1.4c-0.5,0-0.9-0.4-0.9-1l0,0c0-0.5,0.4-0.9,0.9-0.9h12.7c0.5,0,0.9,0.4,0.9,0.9l0,0
	C15.1,2,14.7,2.4,14.1,2.4z"/>
<path class="st0" d="M14.1,7.5H1.4c-0.5,0-0.9-0.4-0.9-0.9l0,0c0-0.5,0.4-0.9,0.9-0.9h12.7c0.5,0,0.9,0.4,0.9,0.9l0,0
	C15.1,7.1,14.7,7.5,14.1,7.5z"/>
<path class="st0" d="M14.1,12.6H1.4c-0.5,0-0.9-0.4-0.9-0.9l0,0c0-0.5,0.4-0.9,0.9-0.9h12.7c0.5,0,0.9,0.4,0.9,0.9l0,0
	C15.1,12.2,14.7,12.6,14.1,12.6z"/>
</svg>
