<?xml version="1.0" encoding="utf-8"?>
<!-- Generator: Adobe Illustrator 24.1.2, SVG Export Plug-In . SVG Version: 6.00 Build 0)  -->
<svg version="1.1" id="Слой_1" xmlns="http://www.w3.org/2000/svg" xmlns:xlink="http://www.w3.org/1999/xlink" x="0px" y="0px"
	 viewBox="0 0 12.04 11.87" style="enable-background:new 0 0 12.04 11.87;" xml:space="preserve">
<style type="text/css">
	.st0{fill:#010202;stroke:#000000;stroke-miterlimit:10;}
</style>
<path class="st0" d="M11.27,2.11l-8.98,8.98c-0.37,0.37-0.96,0.37-1.33,0l0,0c-0.37-0.37-0.37-0.96,0-1.33l8.98-8.98
	c0.37-0.37,0.96-0.37,1.33,0l0,0C11.64,1.14,11.64,1.74,11.27,2.11z"/>
<path class="st0" d="M9.76,11.09L0.78,2.11c-0.37-0.37-0.37-0.96,0-1.33l0,0c0.37-0.37,0.96-0.37,1.33,0l8.98,8.98
	c0.37,0.37,0.37,0.96,0,1.33l0,0C10.72,11.46,10.13,11.46,9.76,11.09z"/>
</svg>
