<?xml version="1.0" encoding="utf-8"?>
<!-- Generator: Adobe Illustrator 24.1.2, SVG Export Plug-In . SVG Version: 6.00 Build 0)  -->
<svg version="1.1" id="Слой_1" xmlns="http://www.w3.org/2000/svg" xmlns:xlink="http://www.w3.org/1999/xlink" x="0px" y="0px"
	 viewBox="0 0 116.4 36.3" style="enable-background:new 0 0 116.4 36.3;" xml:space="preserve">
<style type="text/css">
	.st0{fill-rule:evenodd;clip-rule:evenodd;fill:#FFFFFF;}
</style>
<path id="logo" class="st0" d="M32.7,29.3l-0.3,1.5c-0.1,0.6-0.5,1.1-1,1.4c-4.5,2.5-9.5,3.9-14.6,4.1C6.8,36.6,0,30.7,0,20.3
	C0,8.2,8.3-0.1,20.7,0c3.6-0.1,7.2,0.8,10.4,2.4C32.1,2.9,32.5,4,32,4.9l-1.9,4.3c-0.4,0.9-1.4,1.4-2.3,1.1
	c-1.6-0.5-3.4-0.7-5.1-0.7c-6.1,0-9.1,4-9.3,9.1c-0.2,5.3,3.1,8.8,7.9,9.3c3,0.3,5.9,0,8.7-1C31.5,26.6,33,27.8,32.7,29.3z
	 M55.8,27.5c-0.2,1.5,0.2,2.6,2.9,1.8c1-0.3,2.1,0.3,2.4,1.3l0.3,0.9c0.3,1-0.1,2-1.1,2.4c-4.3,1.9-7.1,2.4-9,2.4
	c-2.2,0-3.8-0.6-4.8-1.7c-0.7-0.7-1.7-0.8-2.5-0.3c-1.8,1.2-3.9,1.9-6,1.9c-4.5,0-7.2-3.3-6.6-7.7L33.3,15c0.1-1,1-1.7,2-1.7h6.3
	c1.2,0,2.1,1.1,2,2.2L42,26.1c-0.2,0.9,0.3,1.8,1.3,2c0.1,0,0.2,0,0.4,0c1.1-0.1,2-1,2.2-2.1L47.3,15c0.1-1,1-1.7,2-1.7h6.3
	c1.2,0,2.1,1.1,2,2.2L55.8,27.5z M76.7,11.9l0.8-5.7c0.1-1,1-1.7,2-1.7h6.3c1.2,0,2.1,1.1,2,2.2l-2.9,21c-0.2,1.4,0.3,2.5,2.9,1.5
	c1-0.4,2.2,0.1,2.6,1.2l0.4,1.1c0.3,0.9-0.1,2-1,2.4c-2.9,1.5-6.1,2.3-9.4,2.4c-2.1,0-3.7-0.7-4.7-1.7c-0.7-0.7-1.8-0.9-2.6-0.3
	c-1.6,1.3-3.6,2-5.7,2c-4.7,0-7.5-4.4-7.5-9.9c0-7.7,5-13.6,11.1-13.6c1.1,0,2.1,0.2,3,0.7C75.1,14,76.5,13.2,76.7,11.9z M75.8,23.9
	c0-1.8-1-3.2-2.5-3.2c-2,0-3.6,2-3.6,4.4c0,1.8,0.9,3.2,2.5,3.2C74.2,28.2,75.8,26.2,75.8,23.9L75.8,23.9z M105.5,15.5l0.1-0.5
	c0.1-1,1-1.7,2-1.7h6.3c1.2,0,2.1,1.1,2,2.2L114,27.7c-0.1,1,0.2,1.5,0.7,1.6c0.9,0.3,1.5,1,1.5,2l-0.1,1.5c0,0.6-0.4,1.1-0.8,1.5
	c-1.7,1.2-3.6,1.9-5.7,2c-2.1,0-3.7-0.6-4.7-1.7c-0.7-0.7-1.8-0.9-2.6-0.3c-1.6,1.3-3.6,2-5.7,2c-4.7,0-7.5-4.4-7.5-9.9
	c0-7.6,5-13.6,11.1-13.6C102.3,12.7,104.3,13.7,105.5,15.5z M105.1,23.9c0-1.8-1-3.2-2.5-3.2c-2,0-3.6,2-3.6,4.4
	c0,1.8,0.9,3.2,2.5,3.2C103.5,28.2,105.2,26.2,105.1,23.9L105.1,23.9z"/>
</svg>
